<svg xmlns="http://www.w3.org/2000/svg" width="920" height="470" viewBox="0 0 920 470" font-family="-apple-system,'Segoe UI',Helvetica,Arial,sans-serif">
<rect width="920" height="470" fill="#fcfcfb"/>
<text x="62" y="26" font-size="17" font-weight="700" fill="#0b0b0b">Sizing the market you do not finance</text>
<text x="62" y="45" font-size="12.5" fill="#52514e">Chao capture-recapture lower bound on the total offtaker pool, from borrower-list overlap (true pool: 300; band: 5th-95th pct of 300 runs)</text>
<line x1="62" y1="64" x2="84" y2="64" stroke="#2a78d6" stroke-width="3" stroke-linecap="round"/>
<text x="90" y="68" font-size="12" fill="#0b0b0b">Provable pool size (Chao lower bound, median)</text>
<line x1="438.0" y1="64" x2="460.0" y2="64" stroke="#eb6834" stroke-width="3" stroke-linecap="round"/>
<text x="466.0" y="68" font-size="12" fill="#0b0b0b">Distinct offtakers actually seen</text>
<line x1="62" y1="418.0" x2="896" y2="418.0" stroke="#ecebe8" stroke-width="1"/>
<text x="54" y="422.0" text-anchor="end" font-size="12" fill="#52514e">0</text>
<line x1="62" y1="344.1" x2="896" y2="344.1" stroke="#ecebe8" stroke-width="1"/>
<text x="54" y="348.1" text-anchor="end" font-size="12" fill="#52514e">100</text>
<line x1="62" y1="270.2" x2="896" y2="270.2" stroke="#ecebe8" stroke-width="1"/>
<text x="54" y="274.2" text-anchor="end" font-size="12" fill="#52514e">200</text>
<line x1="62" y1="196.3" x2="896" y2="196.3" stroke="#ecebe8" stroke-width="1"/>
<text x="54" y="200.3" text-anchor="end" font-size="12" fill="#52514e">300</text>
<line x1="62" y1="122.3" x2="896" y2="122.3" stroke="#ecebe8" stroke-width="1"/>
<text x="54" y="126.3" text-anchor="end" font-size="12" fill="#52514e">400</text>
<line x1="62" y1="418" x2="896" y2="418" stroke="#c9c8c3" stroke-width="1.2"/>
<line x1="62.0" y1="418" x2="62.0" y2="423" stroke="#c9c8c3" stroke-width="1.2"/>
<text x="62.0" y="438" text-anchor="middle" font-size="12" fill="#52514e">0</text>
<line x1="228.8" y1="418" x2="228.8" y2="423" stroke="#c9c8c3" stroke-width="1.2"/>
<text x="228.8" y="438" text-anchor="middle" font-size="12" fill="#52514e">20</text>
<line x1="395.6" y1="418" x2="395.6" y2="423" stroke="#c9c8c3" stroke-width="1.2"/>
<text x="395.6" y="438" text-anchor="middle" font-size="12" fill="#52514e">40</text>
<line x1="562.4" y1="418" x2="562.4" y2="423" stroke="#c9c8c3" stroke-width="1.2"/>
<text x="562.4" y="438" text-anchor="middle" font-size="12" fill="#52514e">60</text>
<line x1="729.2" y1="418" x2="729.2" y2="423" stroke="#c9c8c3" stroke-width="1.2"/>
<text x="729.2" y="438" text-anchor="middle" font-size="12" fill="#52514e">80</text>
<line x1="896.0" y1="418" x2="896.0" y2="423" stroke="#c9c8c3" stroke-width="1.2"/>
<text x="896.0" y="438" text-anchor="middle" font-size="12" fill="#52514e">100</text>
<text x="479" y="458" text-anchor="middle" font-size="12.5" fill="#52514e">Borrowers in the portfolio (B)</text>
<text x="18" y="248" font-size="12.5" fill="#52514e" transform="rotate(-90 18 248)" text-anchor="middle">Estimated offtakers in the whole market</text>
<polygon points="87.0,254.9 95.4,260.4 103.7,259.9 112.0,252.0 120.4,246.0 128.7,245.5 137.1,238.9 145.4,240.3 153.7,238.5 162.1,240.5 170.4,237.9 178.8,237.2 187.1,235.3 195.4,233.5 203.8,232.2 212.1,232.3 220.5,227.9 228.8,227.6 237.1,222.4 245.5,225.2 253.8,222.7 262.2,222.6 270.5,221.1 278.8,220.3 287.2,217.9 295.5,218.8 303.9,217.3 312.2,218.1 320.5,216.9 328.9,215.9 337.2,210.8 345.6,208.4 353.9,209.0 362.2,210.2 370.6,208.1 378.9,208.7 387.3,207.2 395.6,207.2 403.9,205.0 412.3,203.9 420.6,204.1 429.0,207.9 437.3,207.3 445.6,207.7 454.0,206.6 462.3,206.2 470.7,206.5 479.0,204.4 487.3,204.5 495.7,203.8 504.0,203.5 512.4,204.8 520.7,205.6 529.0,204.3 537.4,203.7 545.7,202.6 554.1,204.2 562.4,205.1 570.7,202.9 579.1,204.1 587.4,202.2 595.8,202.1 604.1,202.3 612.4,201.9 620.8,202.2 629.1,202.8 637.5,202.8 645.8,203.5 654.1,202.4 662.5,201.7 670.8,202.1 679.2,201.3 687.5,202.3 695.8,202.8 704.2,199.3 712.5,200.6 720.9,200.3 729.2,200.3 737.5,198.4 745.9,198.6 754.2,198.2 762.6,200.3 770.9,200.5 779.2,199.6 787.6,199.4 795.9,199.9 804.3,200.0 812.6,199.6 820.9,199.1 829.3,198.4 837.6,198.5 846.0,199.0 854.3,197.7 862.6,200.0 871.0,199.2 879.3,198.5 887.7,199.5 896.0,199.7 896.0,226.4 887.7,227.1 879.3,227.1 871.0,226.7 862.6,227.2 854.3,226.3 846.0,226.1 837.6,226.9 829.3,227.6 820.9,227.3 812.6,227.9 804.3,228.7 795.9,229.5 787.6,228.8 779.2,228.6 770.9,229.5 762.6,229.7 754.2,229.6 745.9,230.5 737.5,230.5 729.2,230.6 720.9,231.4 712.5,232.8 704.2,232.8 695.8,233.6 687.5,233.9 679.2,234.6 670.8,234.0 662.5,234.1 654.1,234.7 645.8,235.1 637.5,234.6 629.1,235.3 620.8,235.7 612.4,236.9 604.1,236.5 595.8,236.3 587.4,236.9 579.1,237.3 570.7,237.8 562.4,238.0 554.1,238.2 545.7,238.3 537.4,239.4 529.0,240.4 520.7,240.4 512.4,240.8 504.0,242.5 495.7,242.8 487.3,242.4 479.0,243.9 470.7,245.7 462.3,245.5 454.0,245.5 445.6,246.1 437.3,247.5 429.0,247.4 420.6,249.2 412.3,248.5 403.9,249.3 395.6,250.4 387.3,251.9 378.9,252.7 370.6,253.8 362.2,255.2 353.9,256.8 345.6,257.4 337.2,257.8 328.9,257.4 320.5,260.2 312.2,261.8 303.9,262.4 295.5,262.8 287.2,265.0 278.8,267.6 270.5,267.8 262.2,269.7 253.8,269.5 245.5,270.3 237.1,271.3 228.8,273.8 220.5,276.5 212.1,278.7 203.8,280.7 195.4,283.6 187.1,288.2 178.8,287.2 170.4,290.9 162.1,291.5 153.7,296.8 145.4,300.9 137.1,305.8 128.7,309.4 120.4,316.7 112.0,318.2 103.7,322.7 95.4,332.2 87.0,346.2" fill="#cde2fb" fill-opacity="0.55"/>
<polyline points="87.0,309.3 95.4,302.3 103.7,297.8 112.0,291.5 120.4,286.8 128.7,282.4 137.1,278.2 145.4,275.6 153.7,272.0 162.1,270.0 170.4,266.4 178.8,263.4 187.1,261.9 195.4,258.8 203.8,256.8 212.1,254.6 220.5,253.5 228.8,251.5 237.1,250.0 245.5,248.4 253.8,247.9 262.2,246.0 270.5,245.3 278.8,245.2 287.2,243.9 295.5,242.3 303.9,241.9 312.2,240.7 320.5,239.1 328.9,237.8 337.2,236.9 345.6,237.3 353.9,235.8 362.2,235.4 370.6,234.4 378.9,234.2 387.3,233.9 395.6,232.3 403.9,231.1 412.3,231.5 420.6,231.4 429.0,230.8 437.3,230.0 445.6,229.4 454.0,228.7 462.3,229.2 470.7,228.3 479.0,227.5 487.3,226.6 495.7,226.4 504.0,225.8 512.4,225.2 520.7,224.6 529.0,224.5 537.4,224.1 545.7,223.4 554.1,223.4 562.4,223.0 570.7,222.3 579.1,222.2 587.4,222.1 595.8,221.0 604.1,221.1 612.4,221.2 620.8,220.6 629.1,219.2 637.5,219.7 645.8,219.1 654.1,218.9 662.5,218.9 670.8,218.9 679.2,219.0 687.5,218.3 695.8,217.9 704.2,217.7 712.5,218.1 720.9,217.6 729.2,217.5 737.5,216.9 745.9,216.9 754.2,217.1 762.6,216.7 770.9,216.5 779.2,216.7 787.6,216.4 795.9,216.4 804.3,215.9 812.6,215.8 820.9,215.6 829.3,215.1 837.6,214.9 846.0,214.7 854.3,214.3 862.6,214.0 871.0,214.0 879.3,214.0 887.7,214.1 896.0,213.9" fill="none" stroke="#2a78d6" stroke-width="2.5" stroke-linecap="round" stroke-linejoin="round"/>
<polyline points="87.0,368.9 95.4,359.1 103.7,350.7 112.0,344.2 120.4,338.3 128.7,333.0 137.1,328.1 145.4,323.9 153.7,319.6 162.1,315.6 170.4,312.3 178.8,308.9 187.1,305.9 195.4,303.0 203.8,300.4 212.1,297.8 220.5,295.4 228.8,293.2 237.1,291.0 245.5,289.1 253.8,287.2 262.2,285.4 270.5,283.8 278.8,282.1 287.2,280.3 295.5,278.8 303.9,277.4 312.2,276.0 320.5,274.5 328.9,273.1 337.2,271.9 345.6,270.7 353.9,269.5 362.2,268.4 370.6,267.2 378.9,266.1 387.3,265.0 395.6,264.0 403.9,263.0 412.3,262.1 420.6,261.1 429.0,260.2 437.3,259.3 445.6,258.5 454.0,257.8 462.3,257.0 470.7,256.2 479.0,255.3 487.3,254.5 495.7,253.8 504.0,253.1 512.4,252.3 520.7,251.6 529.0,250.9 537.4,250.3 545.7,249.6 554.1,249.0 562.4,248.4 570.7,247.7 579.1,247.2 587.4,246.6 595.8,246.1 604.1,245.6 612.4,245.1 620.8,244.6 629.1,244.1 637.5,243.6 645.8,243.1 654.1,242.7 662.5,242.2 670.8,241.8 679.2,241.3 687.5,240.8 695.8,240.4 704.2,240.0 712.5,239.5 720.9,239.1 729.2,238.7 737.5,238.4 745.9,238.0 754.2,237.6 762.6,237.3 770.9,236.9 779.2,236.5 787.6,236.2 795.9,235.8 804.3,235.5 812.6,235.2 820.9,234.8 829.3,234.5 837.6,234.1 846.0,233.9 854.3,233.6 862.6,233.3 871.0,233.0 879.3,232.6 887.7,232.4 896.0,232.1" fill="none" stroke="#eb6834" stroke-width="2.5" stroke-linecap="round" stroke-linejoin="round"/>
<line x1="62" y1="196.3" x2="896" y2="196.3" stroke="#52514e" stroke-width="1.4" stroke-dasharray="5 4"/>
<text x="892" y="190.3" text-anchor="end" font-size="12" fill="#52514e">true pool size (300)</text>
<text x="328.9" y="340.4" text-anchor="start" font-size="12" font-weight="400" fill="#52514e"><tspan x="328.9" dy="0">Overlap between borrowers' counterparty lists proves how much</tspan><tspan x="328.9" dy="15">market exists beyond your book, long before you have seen it:</tspan><tspan x="328.9" dy="15">at B=25 you have named ~180 offtakers but can already assert</tspan><tspan x="328.9" dy="15">the pool holds at least ~230-270.</tspan></text>
</svg>
